# xmcd CD database file
#
# Track frame offsets:
#	150
#	17365
#	30619
#	43592
#	59587
#	76015
#	94033
#	111999
#	128328
#	144874
#	162987
#	179343
#	199860
#	221406
#
# Disc length: 3154 seconds
#
# Revision: 2
# Processed by: cddbd v1.5.2PL0 Copyright (c) Steve Scherf et al.
# Submitted via: CDex 1.79
#
DISCID=af0c500e
DTITLE=Brittany Wells - Loving Every Minute Of It
DYEAR=2004
DGENRE=Country
TTITLE0=Too Long
TTITLE1=Loving Every Minute Of It
TTITLE2=Kick Down The Door
TTITLE3=He`s Hers
TTITLE4=You Make Me A Wreck
TTITLE5=That`s What I Said
TTITLE6=From Harm`s Way
TTITLE7=Somebody`s Somebody
TTITLE8=All The Way
TTITLE9=In A Heartbeat
TTITLE10=Shoes
TTITLE11=Say Anything
TTITLE12=Bittersweet
TTITLE13=I Knew You When
EXTD=Produced by Wyatt Easterling YEAR: 2004
EXTT0=
EXTT1=
EXTT2=
EXTT3=
EXTT4=
EXTT5=
EXTT6=
EXTT7=
EXTT8=
EXTT9=
EXTT10=
EXTT11=
EXTT12=
EXTT13=
PLAYORDER=
